# xmcd
#
# Track frame offsets:
#	150
#	18727
#	37698
#	54993
#	70251
#	88126
#	114094
#	144107
#	177398
#	188826
#
# Disc length: 2824 seconds
#
# Revision: 1
# Processed by: cddbd v1.5PL3 Copyright (c) Steve Scherf et al.
# Submitted via: audiograbber 1.82.01
#
DISCID=7a0b060a
DTITLE=Elton John - 1971 - Tokyo - Disc 1
DYEAR=1900
DGENRE=
TTITLE0=Elton John - 01 It's Me That You Need (Live, 1971)
TTITLE1=Elton John - 02 Your Song (Live, 1971)
TTITLE2=Elton John - 03 Rock Me When He's Gone (Live, 1971)
TTITLE3=Elton John - 04 Come Down In Time (Live, 1971)
TTITLE4=Elton John - 05 Skyline Pigeon (Live, 1971)
TTITLE5=Elton John - 06 Rotten Peaches (Live, 1971)
TTITLE6=Elton John - 07 Indian Sunset (Live, 1971)
TTITLE7=Elton John - 08 Ballad Of A Well Known Gun (Live, 1971)
TTITLE8=Elton John - 09 Friends (Live, 1971)
TTITLE9=Elton John - 10 The King Must Die (Live, 1971)
EXTD=
EXTT0=
EXTT1=
EXTT2=
EXTT3=
EXTT4=
EXTT5=
EXTT6=
EXTT7=
EXTT8=
EXTT9=
PLAYORDER=
